<?xml version="1.0" encoding="utf-8"?>
<!-- Generator: Adobe Illustrator 24.3.0, SVG Export Plug-In . SVG Version: 6.00 Build 0)  -->
<svg version="1.1" id="Layer_1" xmlns="http://www.w3.org/2000/svg" xmlns:xlink="http://www.w3.org/1999/xlink" x="0px" y="0px"
	 viewBox="0 0 1024 1024" style="enable-background:new 0 0 1024 1024;" xml:space="preserve">
<style type="text/css">
	.st0{fill:#FFFFFF;}
	.st1{fill:url(#SVGID_1_);}
	.st2{fill:url(#SVGID_2_);}
	.st3{fill:#010101;}
</style>
<g>
	<g>
		<path class="st0" d="M1024,249.99v524.02c0,138.06-111.92,250-250,250H250c-138.08,0-250-111.95-250-250V249.99
			c0-138.08,111.92-250,250-250H774C912.08-0.01,1024,111.91,1024,249.99z"/>
	</g>
	<g>
		<g>
			<g>
				
					<linearGradient id="SVGID_1_" gradientUnits="userSpaceOnUse" x1="34.9711" y1="512.4251" x2="149.4752" y2="512.4251" gradientTransform="matrix(1 0 -0.2772 1 419.3274 1.830578e-04)">
					<stop  offset="0" style="stop-color:#00AEEF"/>
					<stop  offset="1" style="stop-color:#1B75BC"/>
				</linearGradient>
				<path class="st1" d="M475.39,459.91c-6.24,22.51-24.95,40.21-49.12,46.22c25.89,5.1,36.74,25.51,29.09,53.12
					c-9.98,36.01-46.75,58.22-95.37,58.22h-99.94l58.23-210.07h96.63C461.14,407.39,484.38,427.5,475.39,459.91z M424.36,468.61
					c3.99-14.41-4.48-22.81-22.57-22.51h-46.82l-12.73,45.92h46.82C407.07,492.02,420.29,483.32,424.36,468.61z M408.11,553.24
					c4.24-15.31-6.98-24.61-29.27-24.31h-46.82l-13.81,49.82h46.82C387.23,578.75,403.62,569.45,408.11,553.24z"/>
				
					<linearGradient id="SVGID_2_" gradientUnits="userSpaceOnUse" x1="448.157" y1="512.824" x2="345.1746" y2="512.824" gradientTransform="matrix(1 0 -0.2772 1 419.3274 1.830578e-04)">
					<stop  offset="0" style="stop-color:#00AEEF"/>
					<stop  offset="1" style="stop-color:#1B75BC"/>
				</linearGradient>
				<path class="st2" d="M765.93,512.82c-17.14,61.82-75.03,105.04-141.36,105.04h-87.33l58.23-210.07h89.13
					C749.73,407.79,783.15,450.7,765.93,512.82z M717.53,513.12c10.73-38.71-8.87-65.42-44.89-65.42h-40.81l-36.1,130.25h42.92
					C673.75,577.95,706.88,551.54,717.53,513.12z"/>
			</g>
		</g>
		<g>
			<path class="st3" d="M242.48,682.45L242.48,682.45l0.02,0c-0.06,0.2-0.13,0.41-0.18,0.61l-51.59,186.1l-68.85-13.82l72.89,84.77
				l119.88-84.77l-76.51,13.82l51.76-186.71h147.79c26.19,0,53.3-21.23,60.56-47.42h-195.2
				C276.86,635.03,249.74,656.26,242.48,682.45z"/>
			<path class="st3" d="M902.12,168.66L829.23,83.9l-119.88,84.77l76.51-13.82l-51.59,186.1H586.51c-26.19,0-53.3,21.23-60.56,47.42
				v0h195.18h0h0.03c26.19,0,53.3-21.23,60.56-47.42v0h-0.03l51.59-186.1L902.12,168.66z"/>
			<polygon class="st3" points="460.63,617.86 508.04,617.86 566.28,407.79 518.86,407.79 			"/>
		</g>
	</g>
</g>
</svg>
